<svg width="125" height="51" viewBox="0 0 125 51" fill="none" xmlns="http://www.w3.org/2000/svg">
<mask id="path-1-inside-1_1115_1375" fill="white">
<path fill-rule="evenodd" clip-rule="evenodd" d="M23.2312 0.433945C5.85511 0.832377 0 7.28213 0 25.4554C0 43.6284 5.85511 50.0782 23.2312 50.4766V50.4966H96.0015V50.4406C112.485 49.783 118.081 43.2209 118.081 25.4554C118.081 7.68968 112.485 1.12755 96.0015 0.469944V0.414062H93.0675H59.0405H25.0135H23.2312V0.433945Z"/>
</mask>
<path fill-rule="evenodd" clip-rule="evenodd" d="M23.2312 0.433945C5.85511 0.832377 0 7.28213 0 25.4554C0 43.6284 5.85511 50.0782 23.2312 50.4766V50.4966H96.0015V50.4406C112.485 49.783 118.081 43.2209 118.081 25.4554C118.081 7.68968 112.485 1.12755 96.0015 0.469944V0.414062H93.0675H59.0405H25.0135H23.2312V0.433945Z" fill="#FFFAF0"/>
<path d="M23.2312 0.433945L23.2541 1.43368L24.2312 1.41128V0.433945H23.2312ZM23.2312 50.4766H24.2312V49.4993L23.2541 49.4769L23.2312 50.4766ZM23.2312 50.4966H22.2312V51.4966H23.2312V50.4966ZM96.0015 50.4966V51.4966H97.0015V50.4966H96.0015ZM96.0015 50.4406L95.9616 49.4414L95.0015 49.4797V50.4406H96.0015ZM96.0015 0.469944H95.0015V1.43085L95.9616 1.46915L96.0015 0.469944ZM96.0015 0.414062H97.0015V-0.585938H96.0015V0.414062ZM23.2312 0.414062V-0.585938H22.2312V0.414062H23.2312ZM1 25.4554C1 16.4236 2.46708 10.6008 5.83395 6.95784C9.18623 3.3307 14.6426 1.63114 23.2541 1.43368L23.2083 -0.565792C14.4437 -0.364821 8.28449 1.35971 4.36518 5.60037C0.460477 9.82523 -1 16.3139 -1 25.4554H1ZM23.2541 49.4769C14.6426 49.2794 9.18623 47.5799 5.83395 43.9527C2.46708 40.3098 1 34.4871 1 25.4554H-1C-1 34.5967 0.460478 41.0854 4.36518 45.3102C8.28449 49.5509 14.4437 51.2754 23.2083 51.4764L23.2541 49.4769ZM24.2312 50.4966V50.4766H22.2312V50.4966H24.2312ZM96.0015 49.4966H23.2312V51.4966H96.0015V49.4966ZM95.0015 50.4406V50.4966H97.0015V50.4406H95.0015ZM117.081 25.4554C117.081 34.2834 115.679 40.0469 112.471 43.704C109.285 47.3357 104.112 49.1163 95.9616 49.4414L96.0413 51.4398C104.375 51.1074 110.242 49.278 113.974 45.0229C117.685 40.7932 119.081 34.3929 119.081 25.4554H117.081ZM95.9616 1.46915C104.112 1.79431 109.285 3.57484 112.471 7.20659C115.679 10.8637 117.081 16.6272 117.081 25.4554H119.081C119.081 16.5178 117.685 10.1174 113.974 5.88766C110.242 1.63252 104.375 -0.196815 96.0413 -0.529261L95.9616 1.46915ZM95.0015 0.414062V0.469944H97.0015V0.414062H95.0015ZM93.0675 1.41406H96.0015V-0.585938H93.0675V1.41406ZM59.0405 1.41406H93.0675V-0.585938H59.0405V1.41406ZM25.0135 1.41406H59.0405V-0.585938H25.0135V1.41406ZM23.2312 1.41406H25.0135V-0.585937H23.2312V1.41406ZM24.2312 0.433945V0.414062H22.2312V0.433945H24.2312Z" fill="#FFF4DF" mask="url(#path-1-inside-1_1115_1375)"/>
<path opacity="0.4" d="M85.4797 29.5629C85.627 29.18 85.7006 28.9885 85.8269 28.9008C85.9373 28.8242 86.0739 28.7952 86.2059 28.8204C86.3569 28.8492 86.502 28.9943 86.7921 29.2844L89.0512 31.5435C89.3413 31.8336 89.4863 31.9786 89.5152 32.1297C89.5404 32.2617 89.5114 32.3982 89.4347 32.5086C89.347 32.6349 89.1556 32.7086 88.7727 32.8558L83.4216 34.9139L85.4797 29.5629Z" stroke="#FFC653" stroke-width="2" stroke-linecap="round" stroke-linejoin="round"/>
<path d="M85.556 29.3646C85.6925 29.0097 85.7607 28.8322 85.8499 28.6662C85.929 28.5187 86.0204 28.3781 86.123 28.2458C86.2386 28.097 86.373 27.9625 86.6419 27.6936L97.9217 16.4139C99.0262 15.3093 100.817 15.3093 101.922 16.4139C103.026 17.5184 103.026 19.3093 101.922 20.4139L90.6419 31.6936C90.373 31.9625 90.2386 32.097 90.0897 32.2125C89.9574 32.3151 89.8168 32.4065 89.6693 32.4856C89.5033 32.5748 89.3258 32.643 88.9709 32.7795L83.4216 34.9139L85.556 29.3646Z" stroke="#FFC653" stroke-width="2" stroke-linecap="round" stroke-linejoin="round"/>
<path fill-rule="evenodd" clip-rule="evenodd" d="M52.706 18.4387C53.3705 18.9786 53.6198 18.9374 54.8677 18.8541L66.6318 18.1477C66.8813 18.1477 66.6739 17.8988 66.5906 17.8574L64.6369 16.445C64.2625 16.1544 63.7638 15.8215 62.8078 15.9048L51.4166 16.7356C51.0011 16.7768 50.9182 16.9845 51.0836 17.151L52.706 18.4387ZM53.4123 21.1803V33.5582C53.4123 34.2235 53.7447 34.4724 54.4929 34.4312L67.4217 33.6831C68.1703 33.6419 68.2537 33.1844 68.2537 32.644V20.3491C68.2537 19.8096 68.0462 19.5186 67.5879 19.5601L54.0772 20.3491C53.5786 20.391 53.4122 20.6404 53.4122 21.1803H53.4123ZM66.1756 21.8443C66.2585 22.2185 66.1756 22.5924 65.8007 22.6344L65.1778 22.7585V31.8967C64.6369 32.1874 64.1381 32.3536 63.7225 32.3536C63.0571 32.3536 62.8905 32.1458 62.3921 31.5231L58.3173 25.1263V31.3154L59.6067 31.6063C59.6067 31.6063 59.6067 32.3536 58.5665 32.3536L55.6986 32.52C55.6153 32.3536 55.6986 31.9386 55.9895 31.8555L56.7379 31.648V23.4649L55.6989 23.3816C55.6155 23.0074 55.8231 22.4679 56.4055 22.426L59.482 22.2186L63.7225 28.6987V22.9662L62.6413 22.8421C62.5584 22.3847 62.8905 22.0525 63.3062 22.0113L66.1756 21.8443ZM50.4601 15.6142L62.3089 14.7416C63.7639 14.6168 64.1383 14.7004 65.0528 15.3647L68.8351 18.0231C69.4592 18.4802 69.6672 18.6047 69.6672 19.103V33.6831C69.6672 34.5968 69.3343 35.1373 68.1705 35.2199L54.4106 36.0509C53.537 36.0925 53.1212 35.968 52.6637 35.3861L49.8783 31.7723C49.3793 31.1071 49.1718 30.6094 49.1718 30.0272V17.0675C49.1718 16.3202 49.5047 15.6969 50.4601 15.6142V15.6142Z" fill="#FFC653"/>
<path opacity="0.4" d="M34.1595 25.4551C34.1595 27.1151 30.1595 28.4551 25.1595 28.4551C20.1595 28.4551 16.1595 27.1151 16.1595 25.4551" stroke="#FFC653" stroke-width="2" stroke-linecap="round" stroke-linejoin="round"/>
<path d="M34.1595 18.4551C34.1595 20.1119 30.1301 21.4551 25.1595 21.4551C20.189 21.4551 16.1595 20.1119 16.1595 18.4551M34.1595 18.4551C34.1595 16.7982 30.1301 15.4551 25.1595 15.4551C20.189 15.4551 16.1595 16.7982 16.1595 18.4551M34.1595 18.4551V32.4551C34.1595 34.1151 30.1595 35.4551 25.1595 35.4551C20.1595 35.4551 16.1595 34.1151 16.1595 32.4551V18.4551" stroke="#FFC653" stroke-width="2" stroke-linecap="round" stroke-linejoin="round"/>
</svg>
